<svg id="Layer_1" data-name="Layer 1" xmlns="http://www.w3.org/2000/svg" xmlns:xlink="http://www.w3.org/1999/xlink" width="3.76389in" height="2.77083in" viewBox="0 0 271 199.5">
  <defs>
    <style>
      .cls-1 {
        fill: #212121;
      }

      .cls-2 {
        fill: url(#linear-gradient);
      }

      .cls-3 {
        fill: #fff;
      }
    </style>
    <linearGradient id="linear-gradient" x1="158.59984" y1="173.27699" x2="117.66729" y2="29.2733" gradientUnits="userSpaceOnUse">
      <stop offset="0.08244" stop-color="#d32027"/>
      <stop offset="1" stop-color="#ea6827"/>
    </linearGradient>
  </defs>
  <title>hackru-stickers-2016_1</title>
  <path class="cls-1" d="M248.63928,73.7552h-8.19817a7.95506,7.95506,0,0,0-5.88389,2.5589,8.14889,8.14889,0,0,0-1.95576-8.37753l-7.6767-7.6766a8.04131,8.04131,0,0,0-6.03052-2.68932H195.11458V46.63432L195.09827,43.016a8.175,8.175,0,0,0-4.79181-7.39955L187.97577,34.557c-9.5673-4.3354-21.2535-7.33439-33.75453-8.70342C152.94989,25.72313,142.3884,24.68,138.33005,24.68s-14.61984,1.04314-15.826,1.15724c-12.58251,1.38535-24.25239,4.38434-33.81969,8.71974l-2.33069,1.05945a8.14387,8.14387,0,0,0-4.79181,7.41586L81.54552,57.57065H55.82631a8.1323,8.1323,0,0,0-6.30757,2.98268L42.1354,67.93657a8.07588,8.07588,0,0,0-2.347,6.42167A8.08785,8.08785,0,0,0,36.43088,76.852a8.0904,8.0904,0,0,0-6.37273-3.09678H21.85988a8.1524,8.1524,0,0,0-8.14932,8.14932V116.0502a8.15234,8.15234,0,0,0,8.14932,8.14932h8.19827a8.09032,8.09032,0,0,0,6.37273-3.09668,7.98683,7.98683,0,0,0,3.325,2.47733,8.18732,8.18732,0,0,0,2.36322,6.40536l7.6767,7.693a8.11159,8.11159,0,0,0,6.03052,2.673h27.072c2.86858,6.5683,16.44538,32.97213,52.1883,42.88174l1.05935,0.29336a8.2952,8.2952,0,0,0,2.18406.29336,8.08549,8.08549,0,0,0,2.16775-.29336l1.07567-.29336c35.74292-9.90961,49.31972-36.32975,52.1883-42.88174h25.13249a8.09871,8.09871,0,0,0,6.17715-2.836l7.416-7.41586a8.07893,8.07893,0,0,0,2.46111-5.24812c13.12039-.61936,21.84013-10.08887,21.84013-23.97535V81.90452A8.15234,8.15234,0,0,0,248.63928,73.7552ZM133.29373,98.61063l-0.73336-.19558,0.73336-.19558v0.39115Z"/>
  <rect class="cls-1" x="9.75" y="69.72895" width="250.99917" height="56.81811" rx="16.64932" ry="16.64932"/>
  <g>
    <path class="cls-2" d="M218.894,65.33629V65.30653H186.96211V46.23118l-0.01364-3.59891-2.33564-1.0563A104.53255,104.53255,0,0,0,153.334,33.54636s-11.24344-1.1274-15.00536-1.1274-15.00487,1.1274-15.00487,1.1274A104.52484,104.52484,0,0,0,92.0449,41.576l-2.33564,1.0563L89.69562,65.30653H55.824v0.056L47.90128,73.2853H55.824v0.00018H97.67459V73.20221h81.30856v0.08328H218.894V73.2853h7.949Zm-39.91088,4.37512H97.67459V47.83973a100.64272,100.64272,0,0,1,27.71452-6.4868l1.26863-.12613s8.74776-.711,11.67089-0.711S150,41.2268,150,41.2268l1.26863,0.12613a100.63365,100.63365,0,0,1,27.71452,6.4868V69.71142ZM122.121,150.08092l-4.38407-5.29889,5.77433-5.7742,5.29889,4.38395a18.68911,18.68911,0,0,1,4.78962-1.99377l0.646-6.83659h8.166l0.646,6.83659a18.68911,18.68911,0,0,1,4.78962,1.99377l5.29889-4.38395,5.7742,5.7742-4.38395,5.29889a18.78265,18.78265,0,0,1,1.61987,3.53657,61.31711,61.31711,0,0,1-8.72979,5.0974,9.14056,9.14056,0,0,0-18.19567,0,61.31711,61.31711,0,0,1-8.72979-5.0974A18.78264,18.78264,0,0,1,122.121,150.08092Zm104.71462-26.25724H218.894v-0.00493H183.15476v-0.01558h-93.088v0.01558H55.824v0.00493H47.87742l7.94658,7.94658v0.02745H89.69562v3.20785l0.24788,0.67011c0.44122,1.19168,11.21311,29.29142,47.32005,39.29531l1.06506,0.29512,1.06506-.29512c36.10743-10.0039,46.87932-38.10363,47.32054-39.29531l0.24788-.67011v-3.20785H218.894v-0.03245Zm-47.85246,9.678a54.728,54.728,0,0,1-8.63592,13.29113,65.82776,65.82776,0,0,1-32.0186,20.18555,65.82631,65.82631,0,0,1-32.01812-20.18555,54.72424,54.72424,0,0,1-8.63592-13.29064V127.294h81.30856v6.20775ZM129.36281,50.95905l-4.7412,4.64635,4.7412,4.66544h-3.61794l-5.02694-4.66544,5.02694-4.64635h3.61794Zm11.16282-1.69473h3.06555l-6.55047,13.32941h-3.3322Zm11.028,1.69473,5.02753,4.64635-5.02753,4.66544H147.9357l4.7418-4.66544-4.7418-4.64635h3.61794Z"/>
    <g>
      <polygon class="cls-3" points="51.02 115.637 51.02 81.5 42.827 81.5 42.827 94.716 30.05 94.716 30.05 81.5 21.857 81.5 21.857 115.637 30.05 115.637 30.05 102.372 42.827 102.372 42.827 115.637 51.02 115.637"/>
      <path class="cls-3" d="M58.72894,115.6372h8.82682l1.95091-5.36427H83.01548l1.95091,5.36427h8.82682L80.13831,81.49967H72.38385ZM76.23648,91.448h0.04919c0.0487,0,.92627,3.07247,1.65774,5.02338l2.43839,6.63241H72.14035l2.43839-6.63241C75.31022,94.52051,76.18778,91.448,76.23648,91.448Z"/>
      <path class="cls-3" d="M115.88779,88.91225a9.56763,9.56763,0,0,1,7.16909,3.16986l8.33934-2.19441a17.681,17.681,0,1,0,.58488,16.386l-8.29064-2.14571a9.27992,9.27992,0,0,1-7.80267,3.99873c-5.31557,0-9.16821-3.65735-9.16821-9.55829C106.71958,92.96017,110.23083,88.91225,115.88779,88.91225Z"/>
      <path class="cls-3" d="M149.63816,81.49967h-8.19324V115.6372h8.19324V104.32279l2.87718-2.87718,10.33895,14.19158h9.65618l-14.58167-19.605,14.48378-14.53248H162.36632l-8.29064,8.24145c-3.46255,3.46255-4.43752,4.63329-4.4867,4.63329h-0.0487c-0.0487,0,.09789-1.65823.09789-7.31518V81.49967Z"/>
      <path class="cls-3" d="M208.55215,93.20367c0-7.0225-5.16947-11.704-13.75231-11.704H182.07119V115.6372h8.19324V104.51808h4.194l6.33973,11.11912h9.16821l-7.55868-12.58206A10.26534,10.26534,0,0,0,208.55215,93.20367Zm-12.63076,4.04792h-5.657V89.15624h5.657A4.048,4.048,0,1,1,195.92139,97.25159Z"/>
      <path class="cls-3" d="M240.449,81.49967v18.77569c0,5.85224-2.38921,8.388-6.87591,8.388s-6.8764-2.53579-6.8764-8.388V81.49967h-8.19324v18.97049c0,10.24155,5.99834,15.84981,15.06964,15.84981,9.02211,0,15.06915-5.60826,15.06915-15.84981V81.49967H240.449Z"/>
    </g>
  </g>
</svg>
